<?xml version="1.0" encoding="UTF-8"?>
<svg width="143px" height="29px" viewBox="0 0 143 29" version="1.1" xmlns="http://www.w3.org/2000/svg" xmlns:xlink="http://www.w3.org/1999/xlink">
    <!-- Generator: Sketch 58 (84663) - https://sketch.com -->
    
    <desc>Created with Sketch.</desc>
    <defs>
        <linearGradient x1="44.3293878%" y1="20.9281588%" x2="8.72090008%" y2="86.0943859%" id="linearGradient-1">
            <stop stop-color="#27B552" offset="0%"></stop>
            <stop stop-color="#2ECA62" offset="100%"></stop>
        </linearGradient>
    </defs>
    <g id="logo" stroke="none" stroke-width="1" fill="none" fill-rule="evenodd">
        <g transform="translate(0.000000, 0.000000)">
            <path d="M43.7177237,17.4447991 L43.7177237,18.6513348 L32.9237699,18.6513348 C32.5949415,18.6513348 32.3140153,18.7680963 32.0804923,19.0016193 C31.8469692,19.2351424 31.7302077,19.5160686 31.7302077,19.844897 L31.7302077,25.8516285 C31.7302077,26.1804569 31.8469692,26.4613831 32.0804923,26.6949061 C32.3140153,26.9284292 32.5949415,27.0451907 32.9237699,27.0451907 L43.7177237,27.0451907 L43.7177237,28.2517264 L32.9237699,28.2517264 C32.2576305,28.2517264 31.6912872,28.0182034 31.2242411,27.5511573 C30.7571951,27.0841112 30.523672,26.5177679 30.523672,25.8516285 L30.523672,19.844897 C30.523672,19.1792565 30.7571951,18.6124143 31.2242411,18.1453682 C31.6912872,17.6783221 32.2576305,17.4447991 32.9237699,17.4447991 L43.7177237,17.4447991 Z M47.6100239,17.4447492 L47.6100239,25.8515786 C47.6100239,26.180407 47.7267854,26.4613332 47.9603084,26.6948562 C48.1943304,26.9283793 48.4757557,27.0451408 48.805083,27.0451408 L57.221892,27.0451408 C57.5597021,27.0451408 57.8451191,26.9283793 58.0791411,26.6948562 C58.3126642,26.4613332 58.4299247,26.180407 58.4299247,25.8515786 L58.4299247,17.4447492 L59.6234869,17.4447492 L59.6234869,25.8515786 C59.6234869,26.517718 59.3894649,27.0840613 58.9219198,27.5511074 C58.4543747,28.0181535 57.8870335,28.2516765 57.2208941,28.2516765 L48.806081,28.2516765 C48.1389436,28.2516765 47.5716023,28.0181535 47.1045563,27.5511074 C46.6370112,27.0840613 46.4034882,26.517718 46.4034882,25.8515786 L46.4164617,17.4447492 L47.6100239,17.4447492 Z M75.4893815,17.4449488 L75.4893815,18.6514845 L64.6839511,18.6514845 C64.3461411,18.6514845 64.060724,18.767747 63.826702,19.0002721 C63.593179,19.2332962 63.4764174,19.5132244 63.4764174,19.8405559 L63.4764174,21.0430997 C63.4764174,21.3784148 63.5951749,21.661337 63.8331887,21.8893712 C64.0707036,22.1179045 64.3541248,22.2316721 64.6829531,22.2316721 L73.0897825,22.2316721 C73.755423,22.2316721 74.3222653,22.4661931 74.7893113,22.9342371 C75.2563574,23.4022812 75.4893815,23.9701214 75.4893815,24.6372588 L75.4893815,25.8462894 C75.4893815,26.5134268 75.2563574,27.081766 74.7898103,27.54981 C74.3232632,28.0178541 73.7574189,28.2518761 73.0922774,28.2518761 L62.2828552,28.2518761 L62.2828552,27.0453404 L73.0907805,27.0453404 C73.4191099,27.0453404 73.7000361,26.9280799 73.9330602,26.6935589 C74.1665832,26.4590379 74.2833447,26.1776127 74.2833447,25.8472874 L74.2833447,24.6362608 C74.2833447,24.3069335 74.1665832,24.0240113 73.9330602,23.7899893 C73.6995371,23.5559673 73.4181119,23.4382078 73.0897825,23.4382078 L64.6829531,23.4382078 C64.0168137,23.4382078 63.4504704,23.2056827 62.9829254,22.7396346 C62.5163783,22.2730875 62.2828552,21.7082412 62.2828552,21.0440977 L62.2828552,19.8395579 C62.2828552,19.1749154 62.5163783,18.6100691 62.9839233,18.144021 C63.4509694,17.6774739 64.0183106,17.4449488 64.685448,17.4449488 L75.4893815,17.4449488 Z M79.3430106,13.851139 L79.3430106,17.4447991 L91.3435001,17.4447991 L91.3435001,18.6513348 L79.3430106,18.6513348 L79.3430106,25.8401519 C79.3430106,26.177463 79.4597721,26.4623811 79.6937941,26.6954051 C79.9273172,26.9289282 80.2132332,27.0451907 80.5510432,27.0451907 L91.3435001,27.0451907 L91.3435001,28.2517264 L80.5520412,28.2517264 C79.8854028,28.2517264 79.3180615,28.0182034 78.8505165,27.5511573 C78.3829714,27.0841112 78.1494484,26.5177679 78.1494484,25.8516285 L78.1494484,13.851139 L79.3430106,13.851139 Z M104.848866,17.444849 C105.514506,17.444849 106.081349,17.678372 106.548395,18.1454181 C107.015441,18.6124642 107.248964,19.1788074 107.248964,19.8444479 L107.248964,25.8516784 C107.248964,26.5178178 107.011449,27.0841611 106.53592,27.5512072 C106.06089,28.0182533 105.494547,28.2517763 104.838387,28.2517763 L96.4395417,28.2517763 C95.7744002,28.2517763 95.2080569,28.0182533 94.7415098,27.5512072 C94.2749627,27.0841611 94.0419387,26.5178178 94.0419387,25.8516784 L94.0419387,19.8444479 C94.0419387,19.1788074 94.2754617,18.6124642 94.7425078,18.1454181 C95.2095539,17.678372 95.7758971,17.444849 96.4420366,17.444849 L104.848866,17.444849 Z M123.128431,13.8510891 L123.115457,25.8515786 C123.115457,26.517718 122.881934,27.0840613 122.414888,27.5511074 C121.947842,28.0181535 121.381499,28.2516765 120.715359,28.2516765 L112.321503,28.2516765 C111.655364,28.2516765 111.089021,28.0176545 110.621975,27.5501094 C110.154929,27.0825644 109.921406,26.5157221 109.921406,25.8485847 L109.921406,21.1980832 C109.921406,20.5319437 110.154929,19.9646025 110.621476,19.4970574 L110.776659,19.3413754 C111.104988,19.0205307 111.48122,18.6438002 111.904355,18.2111838 C112.137379,17.9686791 112.405332,17.7800643 112.707715,17.6458385 C113.010097,17.5121116 113.329944,17.4447492 113.666756,17.4447492 L121.908922,17.4447492 L121.921895,13.8510891 L123.128431,13.8510891 Z M126.994584,17.4578724 L126.994584,28.2518262 L125.801022,28.2518262 L125.801022,17.4578724 L126.994584,17.4578724 Z M140.450601,17.4447492 C141.115742,17.4447492 141.681587,17.6782722 142.148134,18.1453183 C142.61518,18.6123644 142.848204,19.1792066 142.848204,19.8448471 L142.848204,25.8515786 C142.848204,26.517718 142.614681,27.0840613 142.147635,27.5511074 C141.680589,28.0181535 141.113746,28.2516765 140.448106,28.2516765 L132.05425,28.2516765 C131.388111,28.2516765 130.821767,28.0181535 130.354721,27.5511074 C129.887675,27.0840613 129.654152,26.517718 129.654152,25.8515786 C129.654152,25.5227502 129.708042,25.2203678 129.816321,24.9434334 C129.924101,24.666998 130.086769,24.4205015 130.302827,24.2039438 C131.009162,23.4910111 131.822655,22.6730336 132.74354,21.7507157 L135.323573,19.170225 C135.669366,18.8244312 135.847004,18.6512849 135.855486,18.6512849 L129.654152,18.6512849 L129.654152,17.4447492 L140.450601,17.4447492 Z M104.848866,18.6513847 L96.4420366,18.6513847 C96.1047255,18.6513847 95.8193085,18.7681462 95.5857854,19.0016692 C95.3522624,19.2351923 95.2355009,19.5161185 95.2355009,19.8444479 L95.2355009,25.8516784 C95.2355009,26.1805068 95.3522624,26.461433 95.5862844,26.694956 C95.8198074,26.9284791 96.1012326,27.0452406 96.430061,27.0452406 L104.847369,27.0452406 C105.185179,27.0452406 105.470596,26.9284791 105.704618,26.694956 C105.93864,26.461433 106.055402,26.1805068 106.055402,25.8516784 L106.055402,19.8444479 C106.055402,19.5076358 105.936145,19.2242147 105.69863,18.9951825 C105.460616,18.7656513 105.177195,18.6513847 104.848866,18.6513847 Z M121.921895,18.6512849 L113.670748,18.6512849 C113.341919,18.6512849 113.043529,18.7855107 112.775576,19.0529645 L111.465252,20.3478198 C111.231729,20.5988072 111.114968,20.8837252 111.114968,21.203073 L111.114968,25.840102 C111.114968,26.1774131 111.231729,26.4623312 111.465252,26.6953552 C111.698775,26.9288783 111.984192,27.0451408 112.321503,27.0451408 L120.715359,27.0451408 C121.05267,27.0451408 121.338087,26.9288783 121.57161,26.6953552 C121.805134,26.4623312 121.921895,26.1774131 121.921895,25.840102 L121.921895,18.6512849 Z M140.448106,18.6512849 L137.555015,18.6512849 L131.172052,25.034248 C130.955494,25.267771 130.847714,25.5402145 130.847714,25.8515786 C130.847714,26.1888897 130.966472,26.4723108 131.204486,26.701343 C131.442001,26.9308742 131.725422,27.0451408 132.05425,27.0451408 L140.448106,27.0451408 C140.785417,27.0451408 141.070834,26.9283793 141.304357,26.6948562 C141.53788,26.4613332 141.654642,26.180407 141.654642,25.8515786 L141.654642,19.8448471 C141.654642,19.507536 141.535385,19.2241149 141.29787,18.9950827 C141.059857,18.7655515 140.776435,18.6512849 140.448106,18.6512849 Z M126.994584,13.8512388 L126.994584,15.6545556 L125.801022,15.6545556 L125.801022,13.8512388 L126.994584,13.8512388 Z" id="Combined-Shape" fill="#4A4D56"></path>
            <g id="Group-2" transform="translate(0.000000, 0.687124)">
                <polygon id="Path-9" fill="#2ECA62" points="-1.0074996e-05 4.93706994 47.0781893 0 10.350396 8.23868313"></polygon>
                <polygon id="Path-10" fill="url(#linearGradient-1)" points="11.8946303 8.82716049 10.0041152 18.2427984 20.0082305 13.0579757"></polygon>
                <polygon id="Path-11" fill="#2ECA62" points="47.0781893 0 22.0601133 16.4773663 11.7695473 8.75749189"></polygon>
            </g>
        </g>
    </g>
</svg>